<?xml version="1.0" encoding="UTF-8"?>
<svg id="Lager_1" data-name="Lager 1" xmlns="http://www.w3.org/2000/svg" version="1.1" viewBox="0 0 1080 1080">
  <defs>
    <style>
      .cls-1 {
        fill: #ffce00;
        stroke-width: 0px;
      }
    </style>
  </defs>
  <path class="cls-1" d="M253,497.64l-88.54,153.36h177.08l-88.54-153.36ZM274.75,634.8l-21.7-12.53-21.7,12.53v-29.28l21.7,12.53,21.7-12.53v29.28ZM253.12,590.9c-16.25,0-30.23-6.81-36.41-16.58h-.15c6.17-9.77,20.15-16.58,36.41-16.58s30.23,6.81,36.41,16.58h.15c-6.17,9.77-20.15,16.58-36.41,16.58Z"/>
  <g>
    <path class="cls-1" d="M253.05,555c5.17,3.27,8.78,10.67,8.78,19.28,0,8.61-3.61,16.01-8.78,19.28v-38.55Z"/>
    <path class="cls-1" d="M253.05,593.63c-5.17-3.27-8.78-10.67-8.78-19.28s3.61-16.01,8.78-19.28v38.55Z"/>
  </g>
  <g>
    <rect class="cls-1" x="230.08" y="492.03" width="45.84" height="5.61"/>
    <rect class="cls-1" x="247.45" y="429" width="11.09" height="63.09"/>
  </g>
  <g>
    <path class="cls-1" d="M392.86,649.59h-26.9v-.78h.98c1.82,0,3.39-.66,4.71-1.98s1.98-3.3,1.98-5.93v-54.3c0-2.57-.61-4.57-1.83-5.98s-2.87-2.12-4.96-2.12h-.88v-.83h23.49c3.09,0,5.94.45,8.54,1.34,2.6.9,4.81,2.13,6.62,3.71,1.81,1.58,3.2,3.37,4.17,5.37s1.46,4.17,1.46,6.52c0,4.33-1.4,7.84-4.2,10.55-2.8,2.7-6.56,4.69-11.28,5.96v.2c2.15.23,4.22.57,6.2,1.03,1.99.46,3.78,1.09,5.37,1.9,1.59.81,3.09,1.87,4.49,3.17,1.27,1.17,2.34,2.46,3.22,3.86.88,1.4,1.55,2.92,2,4.57.46,1.64.68,3.33.68,5.05,0,3.74-.97,6.97-2.91,9.67-1.94,2.7-4.13,4.75-6.57,6.15-3.48,1.92-8.28,2.88-14.4,2.88ZM381.04,610.67h4.69c3.84,0,6.58-.39,8.2-1.17,1.04-.52,2.12-1.24,3.25-2.15,1.12-.91,2.2-2.34,3.22-4.3s1.54-4.31,1.54-7.08c0-2.15-.34-4.19-1.03-6.13-.68-1.94-1.68-3.65-2.98-5.15-1.3-1.5-2.85-2.67-4.64-3.52-1.79-.85-3.74-1.27-5.86-1.27-1.86,0-3.99.36-6.4,1.07v29.69ZM388.42,612.87h-7.37v25.93c0,1.73.17,3.17.51,4.32.34,1.16,1.28,2.16,2.81,3,1.53.85,3.89,1.27,7.08,1.27,6.61,0,11.31-2.2,14.11-6.59,1.92-3.03,2.88-6.43,2.88-10.21,0-2.73-.48-5.21-1.44-7.42-.96-2.21-2.28-4.06-3.96-5.54-1.68-1.48-3.78-2.64-6.32-3.49-2.54-.85-5.31-1.27-8.3-1.27Z"/>
    <path class="cls-1" d="M446.28,577.66v.83c-2.15,0-3.97.6-5.47,1.81-1.5,1.2-2.25,3.21-2.25,6.01v54.59c0,2.77.8,4.78,2.39,6.03,1.59,1.25,3.37,1.88,5.32,1.88v.78h-22.8v-.78c2.08,0,3.88-.61,5.4-1.83s2.27-3.25,2.27-6.08v-54.59c0-3-.76-5.05-2.27-6.15s-3.31-1.66-5.4-1.66v-.83h22.8Z"/>
    <path class="cls-1" d="M453.65,648.81h.98c1.76,0,3.31-.69,4.66-2.08,1.35-1.38,2.03-3.33,2.03-5.83v-54.3c0-3-.76-5.08-2.27-6.25s-3.31-1.79-5.4-1.86v-.83h23v.83c-2.02.07-3.81.67-5.37,1.81s-2.34,3.24-2.34,6.3v52.49c0,3.12.78,5.29,2.34,6.49,1.56,1.21,4.12,1.81,7.67,1.81h6.2c2.7,0,4.86-.33,6.47-.98,1.61-.65,2.89-1.64,3.83-2.98.94-1.33,1.9-3.22,2.88-5.66h.83l-2.73,11.82h-42.77v-.78Z"/>
    <path class="cls-1" d="M503.65,648.81h.98c1.76,0,3.31-.69,4.66-2.08,1.35-1.38,2.03-3.33,2.03-5.83v-54.3c0-3-.76-5.08-2.27-6.25s-3.31-1.79-5.4-1.86v-.83h23v.83c-2.02.07-3.81.67-5.37,1.81s-2.34,3.24-2.34,6.3v52.49c0,3.12.78,5.29,2.34,6.49,1.56,1.21,4.12,1.81,7.67,1.81h6.2c2.7,0,4.86-.33,6.47-.98,1.61-.65,2.89-1.64,3.83-2.98.94-1.33,1.9-3.22,2.88-5.66h.83l-2.73,11.82h-42.77v-.78Z"/>
    <path class="cls-1" d="M651.79,593.78h-.83c-.62-3.52-2.27-6.49-4.96-8.94s-5.77-4.22-9.25-5.35c-3.48-1.12-6.74-1.68-9.77-1.68-4.13,0-8.02.87-11.65,2.61-3.63,1.74-6.76,4.2-9.4,7.37s-4.69,6.98-6.15,11.43-2.2,9.27-2.2,14.48.71,9.73,2.12,14.04c1.42,4.31,3.48,8.06,6.2,11.23,2.72,3.17,5.87,5.58,9.45,7.2,3.58,1.63,7.55,2.44,11.91,2.44,3.65,0,7.65-.74,12.01-2.22,4.36-1.48,8.3-3.95,11.82-7.4v2.78c-4.33,3.35-8.29,5.81-11.89,7.37-3.6,1.56-8.08,2.34-13.45,2.34-5.66,0-10.83-1.03-15.5-3.1-4.67-2.07-8.62-4.86-11.84-8.37s-5.66-7.47-7.32-11.87-2.49-8.92-2.49-13.57c0-7,1.72-13.5,5.18-19.51,3.45-6.01,8.12-10.76,14.01-14.26,5.89-3.5,12.29-5.25,19.19-5.25,4.26,0,8.8.63,13.62,1.9l5.08,1.42c.98.2,1.81.29,2.49.29,1.27,0,2.12-.19,2.54-.56.42-.37.75-1.05.98-2.03h.78l-.68,17.19Z"/>
    <path class="cls-1" d="M681.73,577.66v.83c-2.15,0-3.97.6-5.47,1.81-1.5,1.2-2.25,3.21-2.25,6.01v54.59c0,2.77.8,4.78,2.39,6.03,1.59,1.25,3.37,1.88,5.32,1.88v.78h-22.8v-.78c2.08,0,3.88-.61,5.4-1.83s2.27-3.25,2.27-6.08v-54.59c0-3-.76-5.05-2.27-6.15s-3.31-1.66-5.4-1.66v-.83h22.8Z"/>
    <path class="cls-1" d="M689.2,578.49v-.83h23.58c3.94,0,7.41.54,10.42,1.61,3.01,1.07,5.52,2.54,7.52,4.39s3.5,3.95,4.49,6.27c.99,2.33,1.49,4.78,1.49,7.35s-.46,4.92-1.39,7.25c-.93,2.33-2.38,4.39-4.37,6.2-1.99,1.81-4.59,3.25-7.81,4.32s-6.93,1.61-11.13,1.61c-1.33,0-3.91-.2-7.71-.59v24.8c0,5.11,2.6,7.75,7.81,7.91v.78h-22.9v-.78c2.25-.06,4.09-.71,5.54-1.93,1.45-1.22,2.17-3.21,2.17-5.98v-54.39c0-1.66-.26-3.04-.78-4.15-.52-1.11-1.13-1.9-1.83-2.37-.7-.47-1.48-.82-2.34-1.05-.86-.23-1.46-.37-1.78-.44h-.98ZM704.29,580.2v33.89c2.51.46,4.98.68,7.42.68,4.65,0,8.6-1.2,11.84-3.59,3.24-2.39,4.86-6.83,4.86-13.31,0-5.34-1.42-9.72-4.27-13.16-2.85-3.43-7.17-5.15-12.96-5.15-2.25,0-4.54.21-6.88.63Z"/>
    <path class="cls-1" d="M799.3,610.57v-24.07c0-2.34-.63-4.26-1.9-5.76s-3.24-2.25-5.91-2.25v-.83h22.9v.83c-2.67,0-4.62.74-5.86,2.22-1.24,1.48-1.86,3.41-1.86,5.79v54.39c0,5.27,2.57,7.91,7.71,7.91v.78h-22.9v-.78c2.44,0,4.35-.66,5.74-1.98,1.38-1.32,2.08-3.26,2.08-5.83v-28.22h-41.21v28.12c0,2.51.71,4.45,2.12,5.83,1.42,1.38,3.31,2.08,5.69,2.08v.78h-22.9v-.78c2.47,0,4.37-.69,5.69-2.08,1.32-1.38,1.98-3.33,1.98-5.83v-54.39c0-5.34-2.56-8.01-7.67-8.01v-.83h22.9v.83c-2.7,0-4.68.74-5.93,2.22-1.25,1.48-1.88,3.41-1.88,5.79v24.07h41.21Z"/>
    <path class="cls-1" d="M821.18,578.49v-.83h42.87v11.33h-.68c0-6.05-4.04-9.08-12.11-9.08h-14.99v32.67h13.18c2.6,0,4.93-.42,6.98-1.27,2.05-.85,3.22-2.78,3.52-5.81h.73v16.31h-.73c-.29-1.86-.85-3.28-1.66-4.27-.81-.99-1.62-1.65-2.42-1.98-.8-.33-1.51-.49-2.12-.49-1.17-.2-2.39-.29-3.66-.29h-13.82v25.54c0,1.92.37,3.58,1.1,4.98.73,1.4,2.43,2.1,5.1,2.1h10.69c2.57,0,4.69-.37,6.35-1.12,1.66-.75,2.97-1.79,3.93-3.12.96-1.33,1.77-2.95,2.42-4.83h.68l-2.49,11.28h-42.87v-.78h.98c1.53,0,3.03-.62,4.49-1.86,1.46-1.24,2.2-3.25,2.2-6.05v-54.2c0-2.21-.5-4.13-1.49-5.76-.99-1.63-2.73-2.44-5.2-2.44h-.98Z"/>
    <path class="cls-1" d="M873.04,578.69h-.98v-1.03h24.9c4,0,7.4.62,10.18,1.86s4.95,2.81,6.49,4.71c1.55,1.9,2.65,3.91,3.32,6.03.67,2.12,1,4.2,1,6.25,0,2.6-.55,5.1-1.64,7.5-1.09,2.39-2.77,4.45-5.03,6.18-2.26,1.73-5.09,2.9-8.47,3.52v.2c4.3,2.08,8.27,6.22,11.91,12.4l6.49,10.99c2.93,4.92,5.28,8.02,7.06,9.33,1.77,1.3,3.52,2.04,5.25,2.2v.78h-13.09c-.55-.72-1.07-1.41-1.56-2.08-.49-.67-1.01-1.38-1.56-2.12-.33-.49-.81-1.23-1.44-2.22-.63-.99-1.02-1.55-1.15-1.68l-8.59-14.21c-1.73-2.9-3.49-5.25-5.3-7.06s-3.49-3.1-5.05-3.88-2.97-1.27-4.22-1.46c-1.25-.2-2.73-.29-4.42-.29v26.32c0,5.11,2.6,7.75,7.81,7.91v.78h-22.9v-.78c1.43-.06,2.7-.33,3.81-.81,1.11-.47,2.03-1.29,2.76-2.44.73-1.16,1.1-2.71,1.1-4.66v-54.39c0-2.86-.7-4.88-2.1-6.05-1.4-1.17-2.93-1.76-4.59-1.76ZM887.15,612.67h4.1c4.3,0,7.82-.62,10.57-1.86,2.75-1.24,4.74-3,5.98-5.3,1.24-2.29,1.86-5.1,1.86-8.42,0-2.77-.55-5.48-1.66-8.13-1.11-2.65-2.99-4.88-5.64-6.69-2.65-1.81-6.23-2.71-10.72-2.71-1.82,0-3.32.15-4.49.44v32.67Z"/>
  </g>
</svg>